<svg width="40" height="40" viewBox="0 0 40 40" fill="none" xmlns="http://www.w3.org/2000/svg">
<path d="M20.1865 2C25.1079 2 27.0283 12.583 27.0283 12.583C27.0283 12.583 37.6868 11.1391 39.2076 15.8197C40.7284 20.5002 31.2568 25.597 31.2568 25.597C31.2568 25.597 35.9237 35.2876 31.9422 38.1803C27.9607 41.0731 20.1865 33.64 20.1865 33.64C20.1865 33.64 12.4123 41.0731 8.43075 38.1803C4.44926 35.2876 9.11616 25.597 9.11616 25.597C9.11616 25.597 -0.355468 20.5002 1.16533 15.8197C2.68613 11.1391 13.3446 12.583 13.3446 12.583C13.3446 12.583 15.2651 2 20.1865 2Z" fill="#D9D9D9"/>
</svg>
