<svg width="40" height="40" viewBox="0 0 40 40" fill="none" xmlns="http://www.w3.org/2000/svg">
<g clip-path="url(#clip0_805_65)">
<path d="M20 0C23.5359 -3.04315e-07 25.2198 7.39828 25.2198 7.39828C25.2198 7.39828 31.6419 3.35758 34.1421 5.85786C36.6424 8.35815 32.6017 14.7802 32.6017 14.7802C32.6017 14.7802 40 16.4641 40 20C40 23.5359 32.6017 25.2198 32.6017 25.2198C32.6017 25.2198 36.6424 31.6419 34.1421 34.1421C31.6419 36.6424 25.2198 32.6017 25.2198 32.6017C25.2198 32.6017 23.5359 40 20 40C16.4641 40 14.7802 32.6017 14.7802 32.6017C14.7802 32.6017 8.35815 36.6424 5.85786 34.1421C3.35758 31.6419 7.39828 25.2198 7.39828 25.2198C7.39828 25.2198 -3.04311e-07 23.5359 0 20C3.04318e-07 16.4641 7.39828 14.7802 7.39828 14.7802C7.39828 14.7802 3.35758 8.35815 5.85786 5.85786C8.35815 3.35758 14.7802 7.39828 14.7802 7.39828C14.7802 7.39828 16.4641 3.04315e-07 20 0Z" fill="#FFF0F5"/>
</g>
<defs>
<clipPath id="clip0_805_65">
<rect width="40" height="40" fill="white"/>
</clipPath>
</defs>
</svg>
