<svg width="40" height="40" viewBox="0 0 40 40" fill="none" xmlns="http://www.w3.org/2000/svg">
<path d="M17.0426 0.833766C17.9887 0.287556 19.0619 0 20.1543 0C21.2467 0 22.3199 0.287556 23.2659 0.833766L35.1969 7.72211C36.143 8.26832 36.9286 9.05394 37.4748 10C38.021 10.9461 38.3085 12.0192 38.3085 13.1117V26.8883C38.3085 27.9808 38.021 29.0539 37.4748 30C36.9286 30.9461 36.143 31.7317 35.1969 32.2779L23.2659 39.1662C22.3199 39.7124 21.2467 40 20.1543 40C19.0619 40 17.9887 39.7124 17.0426 39.1662L5.11166 32.2779C4.16559 31.7317 3.37998 30.9461 2.83377 30C2.28756 29.0539 2 27.9808 2 26.8883V13.1117C2 12.0192 2.28756 10.9461 2.83377 10C3.37998 9.05394 4.16559 8.26832 5.11166 7.72211" fill="#20BE86"/>
</svg>
