<svg width="40" height="40" viewBox="0 0 40 40" fill="none" xmlns="http://www.w3.org/2000/svg">
<g clip-path="url(#clip0_805_65)">
<path d="M0.71006 20.8955C5.28527 22.0509 9.4635 24.4385 12.7985 27.8034C16.1334 31.1682 18.4998 35.3838 19.645 40H21.0651C22.2102 35.3838 24.5767 31.1682 27.9116 27.8034C31.2466 24.4385 35.4248 22.0509 40 20.8955V19.4627C35.4248 18.3073 31.2466 15.9197 27.9116 12.5548C24.5767 9.19003 22.2102 4.97439 21.0651 0.358209C21.0651 -0.119403 19.645 -0.119403 19.1716 0.358209C18.066 4.91601 15.7705 9.09181 12.5239 12.4515C9.27727 15.8112 5.19798 18.2322 0.71006 19.4627C-0.236687 19.4627 -0.236687 20.8955 0.71006 20.8955Z" fill="black"/>
</g>
<defs>
<clipPath id="clip0_805_65">
<rect width="40" height="40" fill="white"/>
</clipPath>
</defs>
</svg>
