<svg width="40" height="40" viewBox="0 0 40 40" fill="none" xmlns="http://www.w3.org/2000/svg">
<path d="M39.448 27.8588C39.128 27.3188 38.228 26.4788 35.988 26.8788C34.748 27.0988 33.488 27.1988 32.228 27.1388C27.568 26.9388 23.348 24.7988 20.408 21.4988C17.808 18.5988 16.2081 14.8188 16.1881 10.7388C16.1881 8.45877 16.628 6.25877 17.528 4.17877C18.408 2.15877 17.788 1.09877 17.348 0.658768C16.888 0.198768 15.8081 -0.441232 13.6881 0.438768C5.50809 3.87877 0.448088 12.0788 1.04809 20.8588C1.64809 29.1188 7.44809 36.1788 15.1281 38.8388C16.968 39.4788 18.908 39.8588 20.908 39.9388C21.228 39.9588 21.548 39.9788 21.868 39.9788C28.568 39.9788 34.848 36.8188 38.808 31.4388C40.148 29.5788 39.788 28.3988 39.448 27.8588Z" fill="#FF568E"/>
</svg>
