<svg width="40" height="40" viewBox="0 0 40 40" fill="none" xmlns="http://www.w3.org/2000/svg">
<path d="M15.3096 3.52786C16.6763 2.53484 18.3224 2 20.0118 2C21.7013 2 23.3473 2.53484 24.7141 3.52786L34.726 10.8019C36.0928 11.7949 37.1101 13.1951 37.6321 14.8019C38.1542 16.4086 38.1542 18.1394 37.6321 19.7462L33.808 31.5158C33.2859 33.1225 32.2686 34.5228 30.9018 35.5158C29.535 36.5088 27.8889 37.0437 26.1995 37.0437H13.8242C12.1347 37.0437 10.4887 36.5088 9.1219 35.5158C7.75512 34.5228 6.7378 33.1225 6.21573 31.5158L2.39155 19.7462C1.86948 18.1394 1.86948 16.4086 2.39155 14.8019C2.91361 13.1951 3.93094 11.7949 5.29772 10.8019" fill="#20BE86"/>
</svg>
