<svg width="40" height="40" viewBox="0 0 40 40" fill="none" xmlns="http://www.w3.org/2000/svg">
<path d="M16.8816 7.47368C17.8435 7.69527 18.7237 8.18291 19.4217 8.88091C20.1197 9.5789 20.6074 10.4591 20.8289 11.4211C21.07 10.4245 21.5969 9.52002 22.3449 8.81876C23.0929 8.11751 24.0294 7.65001 25.0395 7.47368V6.94737C24.0776 6.72578 23.1973 6.23814 22.4993 5.54015C21.8013 4.84215 21.3137 3.96193 21.0921 3H20.8289C20.6074 3.96193 20.1197 4.84215 19.4217 5.54015C18.7237 6.23814 17.8435 6.72578 16.8816 6.94737C16.6184 6.94737 16.6184 7.21053 16.8816 7.47368ZM3.19737 15.6316C4.83526 16.0768 6.32833 16.9424 7.52852 18.1425C8.7287 19.3427 9.59429 20.8358 10.0395 22.4737H10.829C11.2741 20.8358 12.1397 19.3427 13.3399 18.1425C14.5401 16.9424 16.0332 16.0768 17.6711 15.6316C17.9342 15.6316 17.9342 15.1053 17.6711 15.1053C15.9881 14.6635 14.4592 13.7667 13.2523 12.5134C12.0454 11.26 11.2069 9.69845 10.829 8H10.0395C9.63506 9.68632 8.78762 11.234 7.58475 12.4832C6.38188 13.7323 4.86723 14.6375 3.19737 15.1053C2.93421 15.1053 2.93421 15.3684 3.19737 15.6316ZM14.7763 26.4211C17.3198 27.0577 19.6425 28.3732 21.4965 30.2272C23.3505 32.0812 24.666 34.4039 25.3026 36.9474H26.0921C26.7287 34.4039 28.0443 32.0812 29.8982 30.2272C31.7522 28.3732 34.075 27.0577 36.6184 26.4211V25.6316C34.075 24.995 31.7522 23.6794 29.8982 21.8255C28.0443 19.9715 26.7287 17.6487 26.0921 15.1053C26.0921 14.8421 25.3026 14.8421 25.0395 15.1053C24.4249 17.6166 23.1488 19.9174 21.3439 21.7685C19.539 23.6197 17.2712 24.9536 14.7763 25.6316C14.25 25.6316 14.25 26.4211 14.7763 26.4211Z" fill="black"/>
</svg>
