<svg width="40" height="40" viewBox="0 0 40 40" fill="none" xmlns="http://www.w3.org/2000/svg">
<g clip-path="url(#clip0_805_65)">
<path d="M13.4501 4.91578C15.5117 -1.6386 24.4883 -1.63859 26.5499 4.91578C27.4719 7.84699 30.1162 9.83157 33.0998 9.83157C39.7714 9.83157 42.5453 18.6504 37.1479 22.7013C34.7341 24.5128 33.7241 27.7239 34.646 30.6552C36.7077 37.2095 29.4455 42.6599 24.0481 38.6091C21.6343 36.7975 18.3657 36.7975 15.9519 38.6091C10.5545 42.6599 3.29233 37.2095 5.35396 30.6552C6.27595 27.7239 5.26592 24.5128 2.85212 22.7013C-2.5453 18.6504 0.228601 9.83157 6.90018 9.83157C9.8838 9.83157 12.5281 7.84699 13.4501 4.91578Z" fill="#FF108F"/>
</g>
<defs>
<clipPath id="clip0_805_65">
<rect width="40" height="40" fill="white"/>
</clipPath>
</defs>
</svg>
