<svg width="40" height="40" viewBox="0 0 40 40" fill="none" xmlns="http://www.w3.org/2000/svg">
<g clip-path="url(#clip0_805_65)">
<path d="M16.4963 2.29428C17.9079 -0.764756 22.0921 -0.76476 23.5037 2.29427L26.5862 8.97386C27.1528 10.2018 28.2749 11.0504 29.5718 11.232L36.6266 12.2198C39.8575 12.6722 41.1505 16.8148 38.792 19.1577L33.6423 24.2737C32.6956 25.2142 32.267 26.5874 32.5019 27.9275L33.7795 35.2176C34.3647 38.5562 30.9796 41.1165 28.1104 39.5055L21.8452 35.9878C20.6935 35.3411 19.3065 35.3411 18.1548 35.9878L11.8896 39.5055C9.02036 41.1165 5.63533 38.5562 6.22045 35.2176L7.4981 27.9275C7.73296 26.5874 7.30437 25.2142 6.3577 24.2738L1.20796 19.1578C-1.15046 16.8148 0.142502 12.6722 3.37338 12.2198L10.4282 11.232C11.7251 11.0504 12.8471 10.2018 13.4138 8.97386L16.4963 2.29428Z" fill="#D9D9D9"/>
</g>
<defs>
<clipPath id="clip0_805_65">
<rect width="40" height="40" fill="white"/>
</clipPath>
</defs>
</svg>
