<svg width="40" height="40" viewBox="0 0 40 40" fill="none" xmlns="http://www.w3.org/2000/svg">
<path d="M14.0363 5.44316C14.6407 4.3963 15.51 3.52699 16.5568 2.92259C17.6037 2.31819 18.7912 2 20 2C21.2088 2 22.3963 2.31819 23.4432 2.92259C24.49 3.52699 25.3593 4.3963 25.9637 5.44316L39.0774 28.1567C39.6818 29.2036 40 30.3911 40 31.5999C40 32.8087 39.6818 33.9962 39.0774 35.043C38.473 36.0899 37.6037 36.9592 36.5568 37.5636C35.51 38.168 34.3225 38.4862 33.1137 38.4862H6.88631C5.67751 38.4862 4.49001 38.168 3.44316 37.5636C2.3963 36.9592 1.52699 36.0899 0.922591 35.043C0.318191 33.9962 0 32.8087 0 31.5999C0 30.3911 0.318191 29.2036 0.922591 28.1567" fill="#FFD9BD"/>
</svg>
