<!--  Pencil and Ruler © 2016 by Frills is licensed under CC BY-NC-ND 4.0   -->
<svg xmlns="http://www.w3.org/2000/svg" xml:space="preserve" width="945.902" height="970.669" viewBox="0 0 945.902 970.669"><path fill="#89171A" d="M945.881 136.322c4.541 20.949-721.158 829.171-735.324 834.173-15.244 5.381-150.16-114.92-154.531-136.221C52.473 816.958 777.688 2.906 791.35.101c19.605-4.024 149.585 113.397 154.531 136.221z"/><path fill="#010101" d="M945.881 136.322c4.541 20.949-721.158 829.171-735.324 834.173-7.561 2.668-80.467-57.33-80.467-57.33L872.033 56.296s71.326 68.392 73.848 80.026z" opacity=".1"/><path fill="#010101" d="m214.322 920.667 24.458 21.521 2.745-2.913-24.562-21.611-2.641 3.003zM264.525 863.608l25.969 22.85c.896-.975 1.798-1.957 2.705-2.947l-26.031-22.904-2.643 3.001zM279.116 825.832l37.047 32.596 2.697-2.954-37.103-32.645-2.641 3.003zM239.424 892.137l25.303 22.264c.896-.969 1.803-1.947 2.719-2.936l-25.379-22.331-2.643 3.003zM314.729 806.55l27.035 23.787 2.691-2.96-27.084-23.83-2.642 3.003zM364.932 749.493l27.883 24.533 2.684-2.968-27.924-24.569-2.643 3.004zM379.523 711.715l38.759 34.104 2.679-2.971-38.795-34.136-2.643 3.003zM339.83 778.022l27.48 24.179c.895-.985 1.788-1.973 2.687-2.964l-27.524-24.219-2.643 3.004zM415.136 692.434l28.581 25.147 2.675-2.974-28.614-25.176-2.642 3.003zM465.34 635.377l29.151 25.649 2.67-2.979-29.18-25.674-2.641 3.004zM479.93 597.6l39.906 35.111 2.667-2.981-39.931-35.134-2.642 3.004zM440.238 663.906l28.881 25.411 2.672-2.977-28.911-25.438-2.642 3.004zM515.543 578.319l29.609 26.053c.889-.994 1.776-1.988 2.664-2.984l-29.631-26.071-2.642 3.002zM565.746 521.26l29.955 26.356 2.657-2.989-29.97-26.369-2.642 3.002zM580.338 483.484 620.93 519.2c.886-.997 1.771-1.995 2.654-2.992l-40.604-35.727-2.642 3.003zM540.645 549.79l29.797 26.218 2.66-2.987-29.814-26.232-2.643 3.001zM615.95 464.203l30.179 26.553c.883-1 1.768-1.998 2.65-2.996l-30.187-26.56-2.642 3.003zM666.153 407.145l30.031 26.423 2.642-3.003-30.03-26.423-2.643 3.003zM680.745 369.369l40.763 35.865 2.637-3.007-40.758-35.862-2.642 3.004zM641.052 435.674l30.241 26.608c.883-1 1.766-2 2.646-2.999l-30.245-26.612-2.642 3.003zM716.357 350.087l30.191 26.564 2.633-3.012L719 347.084l-2.643 3.003zM766.561 293.03l29.902 26.31 2.619-3.023-29.879-26.29-2.642 3.003zM781.152 255.252l40.16 35.336c.875-1.014 1.744-2.023 2.611-3.031l-40.129-35.308-2.642 3.003zM741.459 321.559l30.078 26.464 2.627-3.017-30.062-26.451-2.643 3.004zM816.765 235.972l29.301 25.781 2.599-3.042-29.257-25.743-2.643 3.004zM866.969 178.914l28.139 24.759c.861-1.036 1.713-2.064 2.555-3.081l-28.052-24.681-2.642 3.003zM881.559 141.137l37.616 33.097a994.749 994.749 0 0 0 2.498-3.13l-37.472-32.97-2.642 3.003zM841.866 207.443l28.819 25.357c.866-1.025 1.728-2.044 2.582-3.057l-28.76-25.304-2.641 3.004z"/><path fill="#A21D21" d="M644.988 128.583 49.943 583.489.698 519.075 595.842 64.093l-4.67 28.719 29.338 3.546-5.012 28.515z"/><path fill="#EDD8AF" d="m595.842 64.093-4.576 28.643 29.244 3.622-5.011 28.513 29.489 3.712 64.821-99.961z"/><path fill="#FFF" d="m615.375 124.97 5.076-28.565-29.326-3.56 4.717-28.752L0 519.608l35.35 46.243 581.423-441.954" opacity=".1"/><path fill="#FFF" d="m591.039 92.912 4.674-28.627L0 519.608l10.729 14.033L592.438 91.842" opacity=".2"/><path fill="#BE2026" d="m709.809 28.622-27.804 42.876-22.001-27.375z"/></svg>