<!--  Spanner © 2016 by Frills is licensed under CC BY-NC-ND 4.0   -->
<svg xmlns="http://www.w3.org/2000/svg" xml:space="preserve" width="547.826" height="563.768" viewBox="0 0 547.826 563.768"><path fill="#BCBCBC" d="m233.826 514.824 10.252-96.846c-19.346-7.232-43.318-16.3-54.579-21.051-10.101 48.223-6.541 94.953 44.327 117.897z"/><path fill="#BCBCBC" d="m292.11 430.775-9.468 89.217c20.134-2.479 67.911-18.674 75.031-82.68 3.244-29.153-1.068-50.057-14.052-69.107-13.717-20.128-35.658-35.297-43.172-55.275-7.088-18.851 3.991-243.264 3.991-243.264 1.848-18.911-11.446-34.478-29.662-36.406-18.31-1.938-34.723 11.319-36.661 29.629-.14 1.318-32.78 306.117-54.404 326.765-2.448 2.338 108.397 41.121 108.397 41.121zm-18.369-380.7c10.149 1.074 17.507 10.172 16.433 20.322S280 87.903 269.85 86.828s-17.506-10.173-16.432-20.323c1.076-10.149 10.173-17.505 20.323-16.43zm-62.698 325.022 8.126-38.171c.734-3.456 4.281-5.628 7.921-4.854l17.132 3.646c3.64.777 5.993 4.205 5.256 7.662l-8.124 38.17c-.737 3.457-4.283 5.629-7.923 4.854l-17.132-3.646c-3.638-.776-5.992-4.205-5.256-7.661z"/><path fill="#969696" d="m239.91 372.211-23.795-5.115 5.762-26.797 23.794 5.115z"/><path fill="#010101" d="M189.553 396.933c-1.279 6.106-2.375 12.184-3.162 18.195l55.712 21.504 1.975-18.654c-19.346-7.232-43.263-16.294-54.525-21.045zM273.315 281.985c-.08 5.5-4.617 9.506-10.084 8.903l-17.817-1.964c-5.467-.603-9.414-5.565-8.771-11.027l17.713-150.435c.643-5.462 5.645-9.458 11.114-8.879l.245.026c5.469.579 9.879 5.552 9.8 11.052l-2.2 152.324z" opacity=".2"/></svg>