<!--  Octopus © 2016 by Frills is licensed under CC BY-NC-ND 4.0   -->
<svg xmlns="http://www.w3.org/2000/svg" xmlns:xlink="http://www.w3.org/1999/xlink" xml:space="preserve" width="439.967" height="429.788" viewBox="0 0 439.967 429.788"><path fill="#FFF" d="m17.683 46.182 1.163 2.119 2.12 1.162-2.12 1.159-1.163 2.124-1.159-2.124-2.12-1.159 2.12-1.162z"/><circle cx="115.671" cy="23.297" r=".819" fill="#FFF"/><image xlink:href="A2951897002B4012.png" width="73" height="74" opacity=".2" overflow="visible" transform="translate(197.467 277.293)"/><path fill="#D3D3D3" d="M348.031 376.366c-58.693 48.222-145.359 39.736-193.586-18.951-48.225-58.685-39.741-145.356 18.947-193.58 58.688-48.228 145.363-39.742 193.586 18.945 48.225 58.689 39.741 145.361-18.947 193.586z"/><path d="M346.242 204.245c-7.569 6.214-18.736 5.121-24.953-2.447-6.213-7.561-5.123-18.73 2.442-24.946 7.568-6.218 18.732-5.123 24.95 2.44 6.22 7.565 5.123 18.737-2.439 24.953zM308.941 339.648c-12.836 10.548-31.791 8.693-42.342-4.143-10.545-12.836-8.69-31.795 4.144-42.341 12.836-10.55 31.796-8.693 42.343 4.146 10.549 12.836 8.691 31.791-4.145 42.338zM180.011 284.286c-6.421 5.272-15.897 4.346-21.173-2.076-5.271-6.414-4.347-15.897 2.074-21.173 6.419-5.27 15.896-4.341 21.17 2.078 5.276 6.42 4.345 15.891-2.071 21.171z" opacity=".2"/><path fill="#A30D0D" d="M247.621 224.831c-9.095-7.937-41.836-24.118-41.836-24.118s26.211 23.05 20.214 52.186c-6.651 32.326-26.111 46.403-23.736 60.269 2.626 15.314 16.883 15.224 22.535 10.723 5.343-4.257 6.126-11.351 2.105-13.292-6.699-3.228-7.575 6.4-7.575 6.4s-4.703-11.296 6.564-11.924c5.85-.326 10.555 4.707 12.688 8.914 4.169 8.228 3.062 18.542-5.575 26.417-9.347 8.516-25.219 8.912-37.521 2.516-12.305-6.4-19.685-16.704-23.517-33.582-3.795-16.718 6.393-31.602 13.565-53.269 8.277-25.007-19.781-47.153-19.781-47.153s-16.567 7.598-22.147 29.202c-10.283 39.813-1.479 83.182-36.913 95.321-21.5 7.367-44.808-8.892-42.408-35.042 1.557-16.966 17.305-18.444 17.305-18.444s-9.35 19.69 3.967 25.668c11.009 4.938 27.565-7.876 25.595-40.036-3.995-65.261 13.461-61.925 15.972-83.347 2.633-22.487-25.683-34.684-70.472-46.496-44.789-11.812-63.493-63-53.155-94.5C13.829 9.742 31.957 5.916 42.677 2.855c19.85-5.674 50.173-5.702 83.371 29.035 27.649 28.934 25.682 36.812 45.28 53.652 31.788 27.309 54.723 19.908 61.78 16.793 8.191-3.619 26.087-18.541 16.477-37.96-11.222-22.688-24.119-8.366-24.119-8.366s1.006-17.765 17.162-21.6c9.678-2.297 24.639 4.533 32.156 20.838 21.328 46.267-18.377 66.283-18.377 66.283s40.529-23.191 82.033 6.237c36.098 25.595 33.635 63.955 55.789 64.861 6.025.246 8.572-3.506 7.55-7.218-1.754-6.344-9.959-3.173-9.959-3.173s5.251-8.751 13.345-5.47c9.138 3.704 14.672 16.562 5.142 26.472-7.076 7.356-16.591 8.906-29.204 4.919-23.189-7.324-39.817-48.508-66.724-57.203-34.163-11.043-64.207 7.326-64.207 7.326s22.182-11.747 55.361-.391c21.753 7.447 33.469 23.132 41.341 35.11 14.739 22.408 19.311 37.492 36.635 41.957 14.439 3.719 14.221-13.565 14.221-13.565s8.103 15.845-3.175 26.473c-7.655 7.219-23.954 9.519-42.002-6.563-13.53-12.058-26.349-49.449-64.736-56.832-25.567-4.914-48.073-3.937-48.073-3.937s47.401 19.268 64.312 59.556c12.035 28.654 7.934 48.886 4.311 67.279-10.174 51.626 18.262 50.754 18.262 50.754s-14.107 6.785-24.392 1.53c-9.04-4.617-20.565-13.781-17.938-37.848 7.476-68.503-25.708-87.389-36.678-96.973z"/><g fill="#7A0A0A"><path d="M275.197 55.732c-1.328.805-3.16.2-4.102-1.349l-3.571-5.896c-.938-1.548-.623-3.458.707-4.26l.238-.146c1.328-.804 3.163-.198 4.103 1.351l3.572 5.894c.936 1.55.621 3.458-.705 4.263l-.242.143zM281.324 82.203c-1.544.176-2.957-1.137-3.165-2.939l-.791-6.847c-.205-1.798.87-3.403 2.412-3.581l.282-.031c1.542-.178 2.957 1.135 3.169 2.938l.788 6.845c.209 1.799-.873 3.403-2.415 3.582l-.28.033zM272.349 107.878c-1.348-.761-1.725-2.658-.837-4.237l3.373-6.009c.895-1.58 2.706-2.245 4.06-1.483l.244.137c1.354.76 1.73 2.657.842 4.236l-3.372 6.009c-.893 1.581-2.703 2.242-4.06 1.483l-.25-.136zM392.178 210.759c-.274-1.524.952-3.023 2.731-3.342l6.787-1.217c1.784-.32 3.451.659 3.724 2.186l.053.277c.272 1.524-.954 3.025-2.738 3.346l-6.78 1.213c-1.784.321-3.455-.656-3.726-2.186l-.051-.277zM386.971 252.792c-.881-1.28-.386-3.149 1.106-4.174l5.677-3.915c1.489-1.027 3.411-.823 4.295.454l.159.229c.883 1.277.391 3.144-1.107 4.176l-5.675 3.909c-1.492 1.03-3.415.825-4.298-.449l-.157-.23zM283.701 334.517c1.475-.469 3.119.548 3.674 2.27l2.098 6.564c.553 1.729-.195 3.51-1.675 3.983l-.267.084c-1.479.472-3.121-.542-3.676-2.269l-2.099-6.564c-.552-1.725.196-3.505 1.676-3.979l.269-.089zM172.13 310.564c1.479-.471 3.128.546 3.676 2.271l2.104 6.56c.549 1.728-.202 3.509-1.68 3.98l-.267.091c-1.478.471-3.123-.548-3.677-2.271l-2.1-6.562c-.553-1.726.198-3.506 1.676-3.982l.268-.087zM112.388 330.977c.596 1.438-.281 3.161-1.955 3.854l-6.37 2.635c-1.673.692-3.511.095-4.104-1.343l-.106-.258c-.594-1.435.284-3.155 1.957-3.85l6.366-2.638c1.676-.693 3.513-.089 4.107 1.342l.105.258zM87.46 334.598c-.697 1.388-2.575 1.854-4.194 1.043l-6.161-3.096c-1.618-.816-2.366-2.601-1.668-3.986l.125-.25c.697-1.388 2.574-1.853 4.193-1.039l6.157 3.094c1.62.812 2.37 2.597 1.674 3.983l-.126.251zM67.59 318.612c-1.307.428-2.776-.458-3.279-1.983l-1.916-5.805c-.503-1.526.147-3.108 1.456-3.54l.234-.081c1.308-.43 2.776.458 3.281 1.983l1.915 5.8c.504 1.53-.147 3.113-1.455 3.545l-.236.081zM183.512 334.858c.931-1.244 2.858-1.37 4.312-.281l5.515 4.125c1.453 1.087 1.872 2.973.946 4.217l-.171.225c-.927 1.242-2.86 1.372-4.31.286l-5.518-4.13c-1.452-1.084-1.872-2.974-.946-4.217l.172-.225zM207.025 347.282c-.047-1.556 1.376-2.86 3.188-2.919l6.89-.216c1.809-.058 3.318 1.151 3.364 2.704l.015.28c.048 1.553-1.381 2.855-3.195 2.914l-6.884.221c-1.812.054-3.32-1.152-3.37-2.706l-.008-.278zM233.456 340.554c-1.115-.771-1.287-2.448-.388-3.75l3.423-4.955c.896-1.304 2.53-1.731 3.646-.964l.205.14c1.112.774 1.282 2.452.39 3.757l-3.424 4.951c-.901 1.306-2.532 1.732-3.646.965l-.206-.144zM296.426 357.282c.375-1.147 1.768-1.72 3.106-1.283l5.087 1.685c1.34.436 2.121 1.721 1.741 2.868l-.065.207c-.379 1.148-1.771 1.718-3.109 1.281l-5.091-1.678c-1.338-.44-2.118-1.728-1.741-2.873l.072-.207zM412.546 201.328c-1.151-.444-1.662-1.895-1.139-3.236l1.979-5.104c.519-1.341 1.871-2.067 3.023-1.622l.208.081c1.148.446 1.657 1.896 1.141 3.239l-1.982 5.104c-.52 1.34-1.872 2.065-3.026 1.622l-.204-.084z"/></g><path fill="#FFF" stroke="#000" stroke-miterlimit="10" d="M123.094 107.738c-1.172-.982-18.556-5.949-32.828-8.81-9.196-1.844-17.1-2.812-18.546-1.275-4.138 4.396 7.078 27.708 19.875 33.216 12.796 5.506 23.383 1.93 28.854-2.229 5.739-4.362 5.904-18.175 2.645-20.902z"/><path fill="#010002" d="M123.568 107.897c-1.88-2.133-33.275-9.81-35.681-9.14-5.814 1.615-1.659 31.277 11.878 34.571 5.834 1.423 16.319.798 21.201-4.036 7.239-7.167 5.817-17.742 2.602-21.395z"/><circle cx="95.237" cy="106.311" r="4.595" fill="#FFF"/><path fill="#FFF" d="M105.7 106.641c0 .883-.718 1.604-1.604 1.604a1.606 1.606 0 0 1 0-3.209c.886 0 1.604.719 1.604 1.605z"/><path fill="#FFF" stroke="#000" stroke-miterlimit="10" d="M156.77 94.941c4.407.023 7.179-3.056 7.774-5.152.785-2.758-1.171-8.203-5.058-14.334-3.691-5.825-10.657-16.071-16.583-23.224 0 0 3.146 29.514 5.838 37.371.783 2.28 3.377 5.31 8.029 5.339z"/><path d="M156.77 94.941c4.407.01 7.187-2.854 7.788-4.799.792-2.56-1.333-8.164-5.092-14.142-3.466-5.511-10.066-13.822-15.167-8.429 0 0 1.788 15.161 4.458 22.44.776 2.114 3.362 4.916 8.013 4.93z"/><ellipse cx="148.859" cy="68.257" fill="#FFF" rx="1.631" ry="1.62" transform="rotate(-10.978 148.821 68.267)"/><path fill="#FFF" d="M153.916 69.923a.73.73 0 0 1-.581.857.73.73 0 1 1-.281-1.432c.4-.077.786.181.862.575z"/></svg>