<!--  Pencil © 2016 by Frills is licensed under CC BY-NC-ND 4.0   -->
<svg xmlns="http://www.w3.org/2000/svg" xml:space="preserve" width="952.806" height="109.17" viewBox="0 0 952.806 109.17"><path fill="#FEC015" d="M110.782 28.13 859.363 2.711l2.751 81.035-748.703 25.424 20.462-20.685-21.842-19.906 20.622-20.321z"/><path fill="#EDD8AF" d="m113.411 109.17 20.342-20.678-21.722-19.913 20.62-20.321-21.869-20.128L0 71.96z"/><path fill="#B65555" d="M890.274 82.793c-6.31.212-11.556-3.518-11.72-8.328l-2.161-63.609c-.163-4.815 4.818-8.889 11.13-9.102L938.924.009c6.311-.213 11.556 3.513 11.722 8.326l2.156 63.609c.164 4.811-4.814 8.889-11.124 9.102l-51.404 1.747z"/><path fill="#010101" d="m132.81 48.25-20.705 20.324 21.825 19.91-20.519 20.686 749.582-25.454-1.973-58.173-729.973 22.769" opacity=".1"/><path fill="#010101" d="m134.039 88.48-20.412 20.608 749.366-25.372-.599-17.654-730.115 22.479" opacity=".1"/><path fill="#6B6C6C" d="m892.81 1.553 2.749 81.034-33.47 1.135L859.34 2.69z"/><path fill="#2D2E2D" d="m0 71.96 47.518-18.799 2.043 35.06z"/></svg>